# xmcd
#
# Track frame offsets: 
#        150
#        15749
#        49223
#        74180
#        94991
#        108459
#        136923
#        157568
#        178090
#        200550
#        230459
#        251267
#        274629
#
# Disc length: 4038 seconds
#
# Revision: 0
# Processed by: cddbd v1.4PL0 Copyright (c) Steve Scherf et al.
# Submitted via: ExactAudioCopy v0.95a4
#
DISCID=b30fc40d
DTITLE=Stewart and Winfield - Lowcountry Blues Disk 1
DYEAR=2002
DGENRE=Country
TTITLE0=Shotgun
TTITLE1=Hurricane Song
TTITLE2=All Mine
TTITLE3=Piece of Ground
TTITLE4=Sinking Down
TTITLE5=The Importance of Learning To Fly
TTITLE6=Meteorite
TTITLE7=Get It In
TTITLE8=Goin' Home
TTITLE9=Learn To Pray
TTITLE10=Easter Sunday Blues
TTITLE11=Kidney Red Wine
TTITLE12=Git Gone
EXTD=
EXTT0=
EXTT1=
EXTT2=
EXTT3=
EXTT4=
EXTT5=
EXTT6=
EXTT7=
EXTT8=
EXTT9=
EXTT10=
EXTT11=
EXTT12=
PLAYORDER=
